<svg id="Calque_1" data-name="Calque 1" xmlns="http://www.w3.org/2000/svg" viewBox="0 0 150 45.003"><title>Plan de travail 1</title><path d="M113.3,5.96a23.562,23.562,0,0,0,.142-2.385c0-1.523-.227-2.992-.227-3.234h-.744c0,.242-.226,1.711-.226,3.234s.226,2.992.226,3.234h6.436V5.96Z"/><path d="M98.33,5.96c.056-.539.122-1.271.138-2.041h4.175V3.07h-4.18c-.022-.711-.083-1.378-.134-1.879H104.2V.342H97.5c0,.242-.226,1.711-.226,3.234S97.5,6.567,97.5,6.81h6.856V5.96Z"/><path d="M90.032.342H82.464v.849h3.327a23.409,23.409,0,0,0-.142,2.385c0,1.522.226,2.991.226,3.234h.744c0-.243.227-1.712.227-3.234A23.241,23.241,0,0,0,86.7,1.191h3.329Z"/><path d="M74.693,6.81c0-.243.227-1.712.227-3.235S74.693.584,74.693.341h-.744c0,.243-.226,1.712-.226,3.234s.226,2.992.226,3.235Z"/><path d="M66.131,1.191V.341H59.7c0,.243-.227,1.712-.227,3.235s.227,2.991.227,3.233h.743c0-.22.186-1.447.221-2.809h3.724V3.151H60.661c-.019-.74-.083-1.44-.136-1.961Z"/><path d="M47.144,0c-1.254,0-4.358,2.54-4.358,3.576s3.1,3.576,4.358,3.576S51.5,4.611,51.5,3.576,48.4,0,47.144,0m0,6.108c-1.112,0-3.183-1.722-3.183-2.532s2.071-2.533,3.183-2.533,3.182,1.722,3.182,2.533-2.07,2.532-3.182,2.532"/><path d="M34.756,3.807C33.233,2.863,29.7,2.773,29.7,1.866c0-.474,1.106-.93,2.386-.885a4.927,4.927,0,0,1,2.62.884l.512-.747A6.171,6.171,0,0,0,31.939.162c-2.22-.039-3.455,1.058-3.455,1.767,0,.576.716,1.092,1.3,1.335,2.14.884,4.5.869,4.5,1.776,0,.519-1,1.112-2.379,1.089a5.292,5.292,0,0,1-3.025-1.08l-.543.792a6.671,6.671,0,0,0,3.568,1.147,4.52,4.52,0,0,0,2.962-.847,1.64,1.64,0,0,0,.719-1.185,1.572,1.572,0,0,0-.832-1.149"/><path d="M21.014,34.421c-1.2,7.335-3.167,9.7-7.616,9.7H10.792c-1.6,0-2.084-.4-2.084-2.606V23.4c0-5.291.882-5.652,4.248-5.892a.162.162,0,0,0-.04-.321H.171a.162.162,0,0,0-.04.321c3.367.24,4.249.6,4.249,5.892v14.87c0,5.291-.882,5.652-4.249,5.892a.162.162,0,0,0,.04.321h21a.106.106,0,0,0,.12-.12V34.421c0-.16-.24-.16-.28,0"/><path d="M47.308,35.623c-1.2,7.335-3.928,8.5-8.377,8.5H35.122c-1.6,0-2.084-.4-2.084-2.606V30.733h2.525c3.246,0,4.65,1.8,4.81,4.61a.16.16,0,0,0,.32,0v-9.58a.16.16,0,0,0-.32,0c-.16,2.806-1.564,4.61-4.81,4.61H33.038V20.151c0-2.2.481-2.606,2.084-2.606H38.53c4.449,0,6.814-.12,8.016,7.215.04.16.281.16.281,0V17.305a.106.106,0,0,0-.12-.12H24.461c-.16,0-.16.321,0,.321,3.367.24,4.249.6,4.249,5.892v14.87c0,5.291-.882,5.652-4.249,5.892-.16,0-.16.321,0,.321H47.508a.106.106,0,0,0,.12-.12V35.623c0-.16-.28-.16-.32,0"/><path d="M79.735,30.493H66.909c-.161,0-.161.321,0,.321,5.171.12,6.052.6,6.052,4.689v4.569c0,3.608-3.968,4.57-6.453,4.57-5.612,0-9.42-4.85-9.42-13.749s3.207-13.868,8.778-13.868c5.492,0,6.854,2.084,8.778,8.017a.164.164,0,0,0,.32-.04V16.5c0-.16-.24-.2-.32-.04-1.283,2.565-2.245,1.363-4.81.721a16.154,16.154,0,0,0-3.968-.521c-7.856,0-13.628,4.93-13.628,14.229S58.611,45,66.066,45c4.81,0,5.772-2.125,11.023-2.726V35.5c0-4.088-.041-4.283,2.645-4.689.161,0,.161-.321,0-.321"/><path d="M135.731,17.185H120.74c-.16,0-.16.361,0,.361,4.569.12,5.411,2.165,5.411,7.455V38.108l-18.2-20.923H81.86c-.16,0-.16.321,0,.321,3.367.24,4.249.6,4.249,5.892v14.87c0,5.291-.882,5.652-4.249,5.893-.16,0-.16.32,0,.32h23.248a.106.106,0,0,0,.12-.12v-8.7c0-.2-.2-.2-.241-.041-1.2,7.336-4.008,8.5-8.457,8.5H92.521c-1.6,0-2.085-.4-2.085-2.606V30.733h2.525c3.247,0,4.65,1.8,4.81,4.61a.161.161,0,0,0,.321,0v-9.58a.161.161,0,0,0-.321,0c-.16,2.806-1.563,4.61-4.81,4.61H90.437V20.151c0-2.2.481-2.6,2.085-2.6h8.056c2.019,0,2.568.525,4.227,2.383l21.386,24.633c.121.16.321.12.321-.04V25c0-5.291.962-7.455,4.248-7.455h4.57c5.011,0,9.82,4.369,9.82,13.268s-4.809,13.307-9.82,13.307h-3.046c-.2,0-.2.361,0,.361h3.447c7.3,0,14.269-4.369,14.269-13.668s-6.974-13.629-14.269-13.629"/></svg>